<?xml version="1.0" encoding="utf-8"?>
<!-- Generator: Adobe Illustrator 15.0.0, SVG Export Plug-In . SVG Version: 6.00 Build 0)  -->
<!DOCTYPE svg PUBLIC "-//W3C//DTD SVG 1.1//EN" "http://www.w3.org/Graphics/SVG/1.1/DTD/svg11.dtd">
<svg version="1.1" id="Layer_1" xmlns="http://www.w3.org/2000/svg" xmlns:xlink="http://www.w3.org/1999/xlink" x="0px" y="0px"
	 width="500px" height="500px" viewBox="0 0 500 500" enable-background="new 0 0 500 500" xml:space="preserve">
<polygon fill="none" stroke="#000000" stroke-width="7.9017" stroke-miterlimit="10" points="355.361,387.454 250.596,448.632 
	145.24,388.474 144.646,267.161 249.421,205.992 354.783,266.136 "/>
<polygon fill="none" stroke="#000000" stroke-width="7.9017" stroke-miterlimit="10" points="460.716,326.377 355.956,387.553 
	250.596,327.402 250,206.087 354.775,144.911 460.137,205.061 "/>
<polygon fill="none" stroke="#000000" stroke-width="7.9017" stroke-miterlimit="10" points="250,327.378 145.232,388.554 
	39.879,328.403 39.284,207.088 144.06,145.912 249.421,206.062 "/>
<polygon fill="none" stroke="#000000" stroke-width="7.9017" stroke-miterlimit="10" points="460.716,232.823 355.948,293.995 
	250.596,233.849 250,112.534 354.775,51.369 460.137,111.507 "/>
<polygon fill="none" stroke="#000000" stroke-width="7.9017" stroke-miterlimit="10" points="250,232.823 145.24,293.995 
	39.879,233.849 39.284,112.534 144.06,51.369 249.421,111.507 "/>
<polygon fill="none" stroke="#000000" stroke-width="7.9017" stroke-miterlimit="10" points="355.361,294.644 250.596,355.821 
	145.232,295.679 144.646,174.359 249.421,113.182 354.783,173.332 "/>
</svg>
