<?xml version="1.0" encoding="UTF-8"?>
<svg xmlns="http://www.w3.org/2000/svg" xmlns:xlink="http://www.w3.org/1999/xlink" width="550pt" height="550pt" viewBox="0 0 550 550" version="1.1">
<g id="surface1">
<path style="fill:none;stroke-width:7.9017;stroke-linecap:butt;stroke-linejoin:miter;stroke:rgb(0%,0%,0%);stroke-opacity:1;stroke-miterlimit:10;" d="M 355.362216 387.453835 L 250.596591 448.632812 L 145.241477 388.473011 L 144.644886 267.162642 L 249.421165 205.990767 L 354.783381 266.136364 Z M 355.362216 387.453835 " transform="matrix(1.1,0,0,1.1,0,0)"/>
<path style="fill:none;stroke-width:7.9017;stroke-linecap:butt;stroke-linejoin:miter;stroke:rgb(0%,0%,0%);stroke-opacity:1;stroke-miterlimit:10;" d="M 460.71733 326.377841 L 355.955256 387.553267 L 250.596591 327.400568 L 250 206.086648 L 354.776278 144.911222 L 460.138494 205.060369 Z M 460.71733 326.377841 " transform="matrix(1.1,0,0,1.1,0,0)"/>
<path style="fill:none;stroke-width:7.9017;stroke-linecap:butt;stroke-linejoin:miter;stroke:rgb(0%,0%,0%);stroke-opacity:1;stroke-miterlimit:10;" d="M 250 327.379261 L 145.230824 388.554688 L 39.879261 328.401989 L 39.28267 207.088068 L 144.058949 145.912642 L 249.421165 206.06179 Z M 250 327.379261 " transform="matrix(1.1,0,0,1.1,0,0)"/>
<path style="fill:none;stroke-width:7.9017;stroke-linecap:butt;stroke-linejoin:miter;stroke:rgb(0%,0%,0%);stroke-opacity:1;stroke-miterlimit:10;" d="M 460.71733 232.823153 L 355.948153 293.995028 L 250.596591 233.849432 L 250 112.535511 L 354.776278 51.370739 L 460.138494 111.505682 Z M 460.71733 232.823153 " transform="matrix(1.1,0,0,1.1,0,0)"/>
<path style="fill:none;stroke-width:7.9017;stroke-linecap:butt;stroke-linejoin:miter;stroke:rgb(0%,0%,0%);stroke-opacity:1;stroke-miterlimit:10;" d="M 250 232.823153 L 145.241477 293.995028 L 39.879261 233.849432 L 39.28267 112.535511 L 144.058949 51.370739 L 249.421165 111.505682 Z M 250 232.823153 " transform="matrix(1.1,0,0,1.1,0,0)"/>
<path style="fill:none;stroke-width:7.9017;stroke-linecap:butt;stroke-linejoin:miter;stroke:rgb(0%,0%,0%);stroke-opacity:1;stroke-miterlimit:10;" d="M 355.362216 294.644886 L 250.596591 355.820312 L 145.230824 295.678267 L 144.644886 174.357244 L 249.421165 113.181818 L 354.783381 173.330966 Z M 355.362216 294.644886 " transform="matrix(1.1,0,0,1.1,0,0)"/>
</g>
</svg>
