<svg xmlns="http://www.w3.org/2000/svg" width="128" height="128"><g opacity=".9"><path fill="#FFF" d="M31.535 65.654c-.449-6.375-.19-12.724.408-19.08-.988.265-1.975.529-2.963.794 18.707 13.031 65.7 31.822 75.579-.968-1.024.128-2.048.257-3.072.386-1.592 21.297-.471 57.939-28.058 62.655-10.328 1.766-24.542 1.219-32.905-5.752-10.291-8.576-5.94-25.408-9.485-36.859-.334-1.078-3.396-.221-3.073.824 3.87 12.495-1.015 30.712 11.905 38.936 9.599 6.11 23.616 6.179 34.491 4.32 29.064-4.969 28.514-41.981 30.197-64.509.098-1.308-2.791-.548-3.072.386-9.047 30.028-52.581 11.273-69.653-.62-.665-.463-2.861-.291-2.963.794-.612 6.503-.869 12.997-.409 19.518.071 1 3.156.353 3.073-.825z" opacity=".9"/><path fill="#FFF" d="M55.834 80.282c0-3.963-2.403-5.178-6.047-4.213-3.493.926-8.188 4.309-8.956-1.264-.189-1.373-3.271-.612-3.073.824.554 4.015 3.338 5.164 7.045 4.323 1.767-.401 3.435-1.189 5.157-1.739 2.125-.679 2.766.064 2.766 2.322 0 1.578 3.108 1.081 3.108-.253zM70.365 82.036c2.405-3.954 9.646.077 13.438.155 4.381.091 6.083-3.072 6.144-7.015.011-.705-3.057-.213-3.072.824-.023 1.473-.098 2.991-.946 4.253-.655.975-2.787.241-3.647.043-1.979-.457-3.914-1.053-5.923-1.376-3.53-.567-7.13.439-9.043 3.584-.356.584 2.543.364 3.049-.468z" opacity=".9"/><path fill="#FFF" d="M67.326 82.549c-.784 2.679-1.508 4.936-1.027 7.711.176 1.017.6 2.304.307 3.333-.182.641-.486 1.231-.827 1.799.613-1.021 2.136.279.761-.555-2.515-1.525-5.172-1.099-6.998 1.342.988-.265 1.975-.529 2.963-.794-.935-1.04-1.953-1.469-3.347-1.399-2.147.105-3.344.512-3.771-2.095-.097-.588-3.194.087-3.073.824.796 4.846 4.796.924 7.292 3.701.514.572 2.6-.309 2.963-.794.933-.86.892-1.018-.124-.474.322.12.621.345.906.53.429.279.833.497 1.314.667 1 .354 2.682-.191 3.471-.819 1.453-1.155 1.721-2.942 1.483-4.655-.155-1.121-.41-2.221-.523-3.348-.176-1.741.772-3.877 1.258-5.531.167-.575-2.807-.195-3.028.557z" opacity=".9"/><path fill="#FFF" d="M59.369 98.725c-4.886 1.044-10.91 1.375-15.215-1.573-1.805-1.235-2.775-3.355-3.275-5.407-.232-.952-.292-5.318 2.123-4.592.133.039 2.443 1.949 1.455 2.141-1.413.273-2.555 2.044-.438 1.635 2.428-.471 5.698-3.016 2.002-4.934-3.327-1.729-7.393.335-8.28 3.881-1.243 4.97 3.462 9.135 7.635 10.41 4.583 1.401 9.775.893 14.387-.094 1.875-.401 1.446-1.861-.394-1.467z" opacity=".9"/><path fill="#FFF" d="M57.612 100.236c5.666 10.193 29.752 7.784 26.997-6.211-1.059-5.383-10.375-5.727-12.28-.795-2.149 5.562 4.216 6.414 7.436 3.515.777-.7-2.207-.436-2.814.111-1.054.949-1.806-1.622-1.924-2.179-.809-3.792 4.693-3.591 6.158-.845 1.696 3.181.203 7.091-2.379 9.215-5.021 4.131-15.022 1.938-18.12-3.636-.489-.878-3.415.21-3.074.825z" opacity=".9"/><path fill="#FFF" d="M51.088 101.231c-.097 2.723.238 6.223 3.406 6.935 2.97.668 6.299-1.062 8.679-2.641.494-.327.4-.688-.193-.723-.723-.043-1.569.182-2.173.582-1.479.981-3.236 2.203-4.945 1.072-1.81-1.197-1.767-4.175-1.7-6.05.018-.525-3.04-.113-3.074.825zM56.351 58.655c5.992-6.757 13.882-11.484 20.53-17.549 7.236-6.603 13.15-14.49 20.557-20.928-.916.077-1.833.153-2.749.23.787 13.423-3.271 26.419-4.722 39.658-.119 1.092 2.957.484 3.059-.438 1.466-13.371 5.531-26.485 4.735-40.042-.055-.93-2.433-.045-2.749.23-7.402 6.434-13.465 14.178-20.557 20.928-6.681 6.359-14.79 11.014-20.938 17.948-.811.913 2.243.629 2.834-.037z" opacity=".9"/><path fill="#FFF" d="M80.095 36.591c4.13.464 8.148 1.577 12.278 2.042.752.085 1.586-.067 2.173-.583.451-.396.378-.998-.288-1.073-4.13-.466-8.148-1.578-12.278-2.042-.752-.084-1.586.067-2.173.583-.451.396-.378.998.288 1.073zM66.358 49.213c7.883 1.585 15.811 2.78 23.808 3.607 1.168.121 3.269-1.515 1.199-1.729-7.767-.803-15.468-1.997-23.122-3.536-.967-.193-3.627 1.308-1.885 1.658z" opacity=".9"/><path fill="#FFF" d="M32.218 55.327c.428 2.887.551 5.79.644 8.704.036 1.116 3.114.465 3.073-.823-.092-2.914-.216-5.817-.644-8.704-.173-1.171-3.259-.434-3.073.823z"/><path fill="#FFF" d="M32.887 56.217c.92 3.012 3.202 4.778 5.805 6.333 1.083.647 3.825-.844 2.388-1.702-2.273-1.358-4.312-2.811-5.12-5.455-.407-1.333-3.475-.491-3.073.824zM16.019 90.521c6.112-.253 12.138-1.466 18.254-.62.737.102 3.567-1.146 1.963-1.367-6.342-.876-12.584.352-18.923.614-.895.037-3.342 1.457-1.294 1.373zM25.901 104.4c3.494-2.398 6.99-4.793 10.64-6.951 1.783-1.056-.958-1.305-1.868-.768-3.844 2.274-7.523 4.806-11.204 7.332-.539.37-.32.877.26.969.762.122 1.552-.156 2.172-.582zM90.341 65.358c3.637-.356 6.646-2.139 8.906-4.986-.976.175-1.952.35-2.928.524.019 3.382-1.018 6.688-1.74 9.965-.155.701 2.862.228 3.031-.537.744-3.37 1.802-6.771 1.781-10.251-.004-.686-2.666.194-2.928.524-1.179 1.483-2.783 3.316-4.795 3.513-.68.066-1.539.25-2.056.736-.511.481.45.54.729.512zM88.237 91.95c6.474 1.11 12.898 2.947 17.544 7.855.572.604 3.43-.502 2.889-1.074-4.729-4.995-11.33-6.893-17.921-8.023-.756-.13-3.427 1.085-2.512 1.242zM84.88 97.386c5.443 4.885 13.731 4.522 18.653 10.084.742.839 3.681-.285 2.848-1.227-4.988-5.636-13.21-5.199-18.653-10.084-.843-.756-3.731.435-2.848 1.227zM91.654 23.911c-.162-2.208-.48-5.189 1.181-6.967 1.517-1.624 4.541-2.145 6.546-2.827-.586-.137-1.172-.274-1.757-.411.101 1.537-.339 4.198.896 5.306 1.184 1.061 3.515 1.496 2.554 3.528-.807 1.705-3.305 2.663-4.977 3.226-1.794.605-1.395 2.264.441 1.646 2.549-.859 8.503-3.125 7.916-6.751-.261-1.612-3.388-2.123-3.465-3.297-.098-1.494-.195-2.987-.294-4.481-.043-.661-1.398-.533-1.757-.411-2.915.993-6.26 1.753-8.59 3.892-2.26 2.074-1.971 5.61-1.768 8.372.081 1.08 3.165.412 3.074-.825zM84.845 31.684c2.592 1.071 5.278 1.813 7.987 2.52 1.047.273 3.633-1.291 1.859-1.753-2.512-.655-5.014-1.32-7.417-2.313-.702-.29-1.551-.136-2.182.266-.391.248-.951.989-.247 1.28z" opacity=".9"/></g></svg>